<svg width="318" height="262" viewBox="0 0 318 262" fill="none" xmlns="http://www.w3.org/2000/svg">
<rect x="214" y="81.6001" width="104" height="180.4" fill="#9087E5"/>
<path d="M214 64H302.873L318 81.6H214L214 64Z" fill="#AEA7EC"/>
<path d="M265.237 148.26C275.677 148.26 281.857 143.16 281.857 135.12C281.857 129.66 278.497 126.12 273.517 125.04C277.777 123.54 280.597 120.54 280.597 115.74C280.597 109.02 275.077 104.1 265.657 104.1C255.877 104.1 250.297 109.86 249.817 117.72H258.397C258.877 113.7 261.397 111.24 265.477 111.24C269.437 111.24 271.417 113.52 271.417 116.58C271.417 120.24 269.377 122.28 264.877 122.28H261.757V128.76H265.117C269.737 128.76 272.017 130.86 272.017 134.94C272.017 138.78 269.737 141.12 264.877 141.12C259.717 141.12 257.497 138.12 257.137 133.98H248.377C248.737 142.68 254.317 148.26 265.237 148.26Z" fill="white"/>
<rect y="52.4443" width="104" height="209.556" fill="#9087E5"/>
<path d="M14.1818 32H104V52.4444H0L14.1818 32Z" fill="#AEA7EC"/>
<path d="M29.2491 149.444H72.4491V139.604H50.2091L61.0091 129.044C67.6491 122.644 72.0491 116.404 72.0491 108.804C72.0491 98.4843 64.8491 91.4443 52.2091 91.4443C39.4091 91.4443 31.4091 98.6443 30.7691 111.844H42.5291C43.4091 104.324 46.6091 101.364 51.6491 101.364C56.6091 101.364 59.2491 104.404 59.2491 109.124C59.2491 114.324 55.7291 119.364 50.2091 125.204L29.2491 147.364V149.444Z" fill="white"/>
<rect x="104" y="16" width="110" height="246" fill="url(#paint0_linear_302_2421)"/>
<path d="M120 0H198L214 16H104L120 0Z" fill="#CDC9F3"/>
<path d="M155.167 118H171.367V46.5H157.167L140.667 58.2V72L155.167 62.5V118Z" fill="white"/>
<defs>
<linearGradient id="paint0_linear_302_2421" x1="159" y1="16" x2="159" y2="189" gradientUnits="userSpaceOnUse">
<stop stop-color="#9087E5"/>
<stop offset="1" stop-color="#CDC9F3"/>
</linearGradient>
</defs>
</svg>
